<?xml version="1.0" encoding="utf-8"?>
<!-- Generator: Adobe Illustrator 26.1.0, SVG Export Plug-In . SVG Version: 6.00 Build 0)  -->
<svg version="1.0" id="coin" xmlns="http://www.w3.org/2000/svg" xmlns:xlink="http://www.w3.org/1999/xlink" x="0px" y="0px"
	 viewBox="0 0 2.71 1.851" enable-background="new 0 0 2.71 1.851" xml:space="preserve">
<g>
	<path fill="#838383" d="M1.918,1.176C1.915,1.174,1.913,1.172,1.91,1.17c0,0-0.001-0.001-0.001-0.001
		c-0.023-0.016-0.05-0.031-0.086-0.044c-0.029-0.011-0.05-0.02-0.067-0.03C1.727,1.08,1.712,1.065,1.712,1.047
		c0-0.026,0.019-0.053,0.08-0.053c0.05,0,0.087,0.012,0.112,0.023c0.003,0.001,0.004,0.002,0.006,0.003
		c0.006,0.003,0.011,0.005,0.015,0.007l0.002-0.007l0.026-0.098c-0.031-0.015-0.073-0.029-0.135-0.03V0.809H1.778H1.727v0.01v0.078
		C1.723,0.898,1.72,0.9,1.716,0.901C1.624,0.922,1.57,0.984,1.57,1.062c0,0.027,0.008,0.048,0.019,0.068
		C1.61,1.17,1.651,1.197,1.705,1.219c0.011,0.004,0.021,0.01,0.032,0.013c0.007,0.002,0.012,0.005,0.018,0.007
		C1.81,1.26,1.836,1.281,1.836,1.313c0,0.013-0.006,0.024-0.016,0.033C1.806,1.359,1.785,1.367,1.758,1.369
		C1.754,1.37,1.75,1.37,1.746,1.37c-0.06,0-0.115-0.019-0.154-0.041l-0.02,0.077L1.564,1.438v0C1.6,1.458,1.66,1.475,1.722,1.477
		V1.52v0.046h0.091V1.495V1.471c0.091-0.016,0.143-0.068,0.158-0.134C1.974,1.325,1.978,1.313,1.978,1.3
		C1.978,1.247,1.958,1.208,1.918,1.176z"/>
	<path fill="#838383" d="M2.076,0.605c0.003-0.011,0.008-0.022,0.008-0.034V0.361V0.312V0.297c0-0.363-1.276-0.363-1.276,0v0.126
		C0.54,0.445,0.306,0.534,0.306,0.689v0.274c0,0.148,0.215,0.238,0.467,0.266L0.77,1.278c0,0.143,0.2,0.231,0.439,0.263
		c0.118,0.172,0.316,0.285,0.54,0.285c0.361,0,0.655-0.294,0.655-0.655C2.405,0.928,2.271,0.719,2.076,0.605z M0.915,0.826
		C0.609,0.82,0.443,0.728,0.443,0.689c0-0.034,0.127-0.109,0.364-0.132l0,0.013c0,0.095,0.089,0.166,0.219,0.212
		C0.985,0.795,0.948,0.81,0.915,0.826z M0.945,0.297c0-0.04,0.175-0.138,0.5-0.138c0.325,0,0.5,0.098,0.5,0.138
		s-0.175,0.138-0.5,0.138C1.12,0.435,0.945,0.337,0.945,0.297z M1.749,1.688c-0.132,0-0.252-0.051-0.344-0.134
		c-0.042-0.037-0.077-0.081-0.105-0.13C1.299,1.42,1.297,1.416,1.294,1.412C1.271,1.368,1.252,1.321,1.242,1.27
		C1.24,1.26,1.24,1.249,1.238,1.239c-0.001-0.01-0.002-0.02-0.003-0.029C1.235,1.196,1.231,1.184,1.231,1.17
		c0-0.013,0.003-0.026,0.004-0.038c0-0.007,0.001-0.013,0.002-0.02c0.002-0.014,0.002-0.029,0.004-0.043
		c0.01-0.052,0.03-0.101,0.056-0.146c0.005-0.009,0.009-0.017,0.014-0.025c0.006-0.01,0.012-0.019,0.019-0.028
		C1.336,0.86,1.344,0.852,1.351,0.844C1.378,0.81,1.409,0.78,1.444,0.754c0.009-0.007,0.018-0.013,0.027-0.019
		C1.476,0.732,1.48,0.73,1.484,0.728C1.497,0.72,1.51,0.713,1.523,0.707c0.002-0.001,0.003-0.002,0.005-0.003
		c0.017-0.008,0.035-0.015,0.053-0.021c0.053-0.018,0.109-0.03,0.168-0.03c0.02,0,0.039,0.004,0.058,0.006
		C1.839,0.662,1.87,0.668,1.9,0.678c0.033,0.01,0.064,0.023,0.093,0.039C2.155,0.804,2.267,0.974,2.267,1.17
		C2.267,1.456,2.035,1.688,1.749,1.688z"/>
</g>
</svg>