<?xml version="1.0" encoding="utf-8"?>
<!-- Generator: Adobe Illustrator 26.5.0, SVG Export Plug-In . SVG Version: 6.00 Build 0)  -->
<svg version="1.1" id="Layer_1" xmlns="http://www.w3.org/2000/svg" xmlns:xlink="http://www.w3.org/1999/xlink" x="0px" y="0px"
	 viewBox="0 0 1614 349" style="enable-background:new 0 0 1614 349;" xml:space="preserve">
<g>
	<g>
		<g>
			<path d="M64,85.9c0,9,1.3,18.4,2.7,28.1c1.3,9,2.7,18.4,2.7,27.7c-0.3,11.7-3.7,24.7-27.1,24.7v17c23.7,0,27.1,14.4,27.1,25
				c0,8.7-1.3,17.7-2.3,27.1c-1.7,9-3,18.4-3,27.4c0,33.7,21,45.8,48.4,45.8h7v-18.4h-5.7C95,290,87,280,87,261.3c0-8,1.3-16,2.3-24
				c1.3-8.3,2.7-16.7,2.7-25.7c0-21.4-9.4-32.4-24.4-36.4v-0.7c15-4,24.7-14.7,24.4-36.1c0-9-1.3-17-2.7-25.4c-1-8-2.3-16-2.3-23.7
				c0-18,7-28.4,26.7-28.7h5.7V42.2h-6.7C84.4,42.2,64,55.2,64,85.9z"/>
		</g>
		<g>
			<path d="M327.8,141.7c0-9.4,1.3-18.7,2.7-27.7c1.3-9.7,2.7-19,2.7-28.1c0-30.7-20.4-43.8-48.8-43.8h-6.7v18.4h5.7
				c19.7,0.3,26.7,10.7,26.7,28.7c0,7.7-1.3,15.7-2.3,23.7c-1.3,8.3-2.7,16.4-2.7,25.4c0,21.4,9.4,32.1,24.4,36.1v0.7
				c-15,4-24.7,15-24.4,36.4c0,9,1.3,17.4,2.7,25.7c1,8,2.3,16,2.3,24c0,18.7-8,28.7-26.7,29.1h-5.7v18.4h7
				c27.4,0,48.4-12,48.4-45.8c0-9-1.3-18.4-2.7-27.4c-1.3-9.4-2.7-18.4-2.7-27.1c0.3-10.7,3.7-25,27.1-25v-17
				C331.1,166.4,327.8,153.4,327.8,141.7z"/>
		</g>
		<g>
			<polygon points="130.7,155.9 266.7,155.9 198.7,69.4 			"/>
		</g>
		<g>
			<polygon points="198.7,286 266.7,199.5 130.7,199.5 			"/>
		</g>
	</g>
	<g>
		<path d="M423.8,102.1l6.1-7.1c5.1,4.8,11.9,8,19.3,8c8.5,0,13.3-3.9,13.3-9.4c0-6.6-4.9-8.4-11.6-11.2l-9.5-4.2
			c-6.9-2.7-14.4-7.7-14.4-17.6c0-10.5,9.5-18.4,22.8-18.4c8.3,0,16,3.3,21.2,8.5l-5.3,6.6c-4.5-3.8-9.4-6-16.3-6
			c-7.1,0-11.9,3.3-11.9,8.8c0,5.9,5.8,8,11.8,10.3l9.1,4c8.5,3.3,14.8,8.2,14.8,18.1c0,10.8-9.1,19.7-24.4,19.7
			C438.9,112,430.1,108.2,423.8,102.1z"/>
		<path d="M484.9,85.7c0-16.8,11.8-26.5,25.1-26.5c13.3,0,25.1,9.6,25.1,26.5c0,16.7-11.8,26.3-25.1,26.3
			C496.7,112,484.9,102.4,484.9,85.7z M524.5,85.7c0-10.8-5.7-18-14.6-18c-8.9,0-14.6,7.2-14.6,18c0,10.8,5.7,17.9,14.6,17.9
			C518.9,103.6,524.5,96.4,524.5,85.7z"/>
		<path d="M565.1,93.1V45.9h-17.3v-8.2h27.5v56c0,7,4,9.8,9.5,9.8c2.7,0,5.7-0.7,9-2.1l2.5,7.6c-4.8,1.9-8.2,2.9-13.9,2.9
			C571.2,112,565.1,105.3,565.1,93.1z"/>
		<path d="M634.1,68.6h-22.5v-8.2h32.7v50.3h-10.3V68.6z M630.8,43.3c0-4.3,3.2-7.3,7.6-7.3c4.4,0,7.6,3,7.6,7.3
			c0,4.4-3.2,7.3-7.6,7.3C634,50.6,630.8,47.7,630.8,43.3z"/>
		<path d="M670.3,85.7c0-16.4,10.8-26.5,22.4-26.5c5.9,0,10.3,2.3,14.5,6.2h0.2l-0.5-8.8V37.8h10.3v73h-8.4l-0.8-6.2h-0.3
			c-4,4.1-9.8,7.5-15.8,7.5C678.9,112,670.3,102.4,670.3,85.7z M706.9,96.7V72.9c-4.1-3.8-7.9-5.2-11.9-5.2
			c-7.8,0-14.3,6.8-14.3,17.8c0,11.4,5.1,17.9,13.5,17.9C698.8,103.4,703,101.3,706.9,96.7z"/>
		<path d="M757.6,68.6h-22.5v-8.2h32.7v50.3h-10.3V68.6z M754.3,43.3c0-4.3,3.2-7.3,7.6-7.3c4.4,0,7.6,3,7.6,7.3
			c0,4.4-3.2,7.3-7.6,7.3C757.5,50.6,754.3,47.7,754.3,43.3z"/>
		<path d="M808.3,90.8V68.6h-13.9V61l14.3-0.5l1.3-15.9h8.5v15.9h23.7v8.2h-23.7v22.2c0,8.6,3.1,12.8,12.2,12.8
			c4.4,0,8-0.9,11.5-2.2l2.1,7.5c-4.5,1.6-9.5,2.9-15.9,2.9C813.3,112,808.3,103.5,808.3,90.8z"/>
		<path d="M856.6,130.8l2-8c1.3,0.4,2.9,0.7,4.4,0.7c6.7,0,10.7-4,12.9-9.6l1.3-3.4l-23-50h10.3l11.2,26.1c1.9,4.5,3.9,9.8,5.9,14.7
			h0.4c1.7-4.8,3.6-10.1,5.2-14.7l9.9-26.1h9.8l-21.6,53.5c-4,10.6-10.1,17.9-21.9,17.9C861,131.9,858.5,131.4,856.6,130.8z"/>
		<path d="M424.4,149.3H533v35.4h-66.4v25.1h56.5v35.4h-56.5v28.5h68.8V309H424.4V149.3z"/>
		<path d="M597.9,258.4v-87.5H561V138h79.1v121.9c0,14.3,9.8,18.2,18.4,18.2c5.2,0,10.6-1,17.7-3.4l9.1,31
			c-13.3,3.9-22.1,6.4-38.1,6.4C614.6,311.9,597.9,290.3,597.9,258.4z"/>
		<path d="M711,247.6c0-40.3,31.5-64.4,64.4-64.4c38.8,0,58.5,26.5,58.5,59.5c0,7.4-1.2,14.7-1.7,17.7h-89.2v-27.5h60l-5.9,7.4
			c0-16.2-6.4-25.1-20.2-25.1c-16.2,0-25.1,10.3-25.1,32.4c0,23.1,11.3,32.4,33.9,32.4c9.8,0,18.7-2.5,29.5-7.4l13.8,25.1
			c-14.7,9.3-33.9,14.3-49.1,14.3C741,311.9,711,288.4,711,247.6z"/>
		<path d="M852.1,186.1h42.3l16,53.6c3.7,12.3,6.6,25.1,10.1,38.3h1c3.4-13.3,6.4-26,10.1-38.3l16-53.6h40.3L945,309h-48.7
			L852.1,186.1z"/>
		<path d="M1006.9,274.1c0-27.5,21.6-41.8,77.7-44.7c-1.5-8.8-9.8-12.8-23.6-12.8c-10.3,0-20.6,3.4-35.4,10.3l-14.7-27.5
			c18.7-10.3,37.8-16.2,58.5-16.2c34.9,0,57.5,17.2,57.5,57.5V309h-34.4l-2.9-12.8h-1c-12,8.8-26.5,15.7-41.8,15.7
			C1021.2,311.9,1006.9,294.2,1006.9,274.1z M1084.6,270.2v-15.7c-30,1-37.3,7.9-37.3,16.2c0,5.7,4.4,8.8,13.3,8.8
			C1070.3,279.5,1077.9,275.1,1084.6,270.2z"/>
		<path d="M1180.9,256.9v-37.8h-29.5v-31.5l31.5-1.5l5.4-36.9h34.9v36.9h48.7v32.9h-48.7v37.1c0,17.4,8.1,22.9,23.8,22.9
			c8.4,0,15.7-1.7,22.4-3.9l7.4,30.5c-10.8,2.9-24.1,6.4-40.8,6.4C1195.7,311.9,1180.9,289.8,1180.9,256.9z"/>
		<path d="M1298.9,247.6c0-40.8,31-64.4,63.4-64.4c32.4,0,63.4,23.6,63.4,64.4c0,40.8-31,64.4-63.4,64.4
			C1329.9,311.9,1298.9,288.4,1298.9,247.6z M1382.5,247.6c0-18.7-5.9-30.5-20.1-30.5c-14.3,0-20.1,11.8-20.1,30.5
			c0,18.7,5.9,30.5,20.1,30.5C1376.6,278,1382.5,266.2,1382.5,247.6z"/>
		<path d="M1461.6,186.1h34.7l3.2,26h1c11.8-20.1,29.5-29,47.9-29c11.3,0,16.5,2,23.3,4.9l-8.4,35.4c-7.4-2.2-12.5-3.4-21.4-3.4
			c-14,0-29,7.4-38.1,28V309h-42.3V186.1z"/>
	</g>
</g>
</svg>
