<?xml version="1.0" encoding="utf-8"?>
<!-- Generator: Adobe Illustrator 26.5.0, SVG Export Plug-In . SVG Version: 6.00 Build 0)  -->
<svg version="1.1" id="Layer_1" xmlns="http://www.w3.org/2000/svg" xmlns:xlink="http://www.w3.org/1999/xlink" x="0px" y="0px"
	 viewBox="0 0 512 512" style="enable-background:new 0 0 512 512;" xml:space="preserve">
<g>
	<g>
		<path d="M64.2,128.9c0,12.9,1.9,26.2,3.8,40c1.9,12.9,3.8,26.2,3.8,39.5c-0.5,16.7-5.2,35.2-38.6,35.2v24.3
			c33.8,0,38.6,20.5,38.6,35.7c0,12.4-1.9,25.2-3.3,38.6c-2.4,12.9-4.3,26.2-4.3,39c0,48.1,30,65.2,69,65.2h10v-26.2h-8.1
			c-26.7-0.5-38.1-14.8-38.1-41.4c0-11.4,1.9-22.9,3.3-34.3c1.9-11.9,3.8-23.8,3.8-36.7c0-30.5-13.3-46.2-34.8-51.9v-1
			c21.4-5.7,35.2-21,34.8-51.4c0-12.9-1.9-24.3-3.8-36.2c-1.4-11.4-3.3-22.9-3.3-33.8c0-25.7,10-40.5,38.1-41h8.1V66.5h-9.5
			C93.3,66.5,64.2,85.1,64.2,128.9z"/>
	</g>
	<g>
		<path d="M440.4,208.4c0-13.3,1.9-26.7,3.8-39.5c1.9-13.8,3.8-27.1,3.8-40c0-43.8-29-62.4-69.5-62.4h-9.5v26.2h8.1
			c28.1,0.5,38.1,15.2,38.1,41c0,10.9-1.9,22.4-3.3,33.8c-1.9,11.9-3.8,23.3-3.8,36.2c0,30.5,13.3,45.7,34.8,51.4v1
			c-21.4,5.7-35.2,21.4-34.8,51.9c0,12.9,1.9,24.8,3.8,36.7c1.4,11.4,3.3,22.9,3.3,34.3c0,26.7-11.4,41-38.1,41.4h-8.1v26.2h10
			c39,0,69-17.1,69-65.2c0-12.9-1.9-26.2-3.8-39c-1.9-13.3-3.8-26.2-3.8-38.6c0.5-15.2,5.2-35.7,38.6-35.7v-24.3
			C445.1,243.6,440.4,225.1,440.4,208.4z"/>
	</g>
	<g>
		<polygon points="159.4,228.6 353.3,228.6 256.3,105.2 		"/>
	</g>
	<g>
		<polygon points="256.3,414.2 353.3,290.8 159.4,290.8 		"/>
	</g>
</g>
</svg>
