<?xml version="1.0" encoding="utf-8"?>
<!-- Generator: Adobe Illustrator 26.1.0, SVG Export Plug-In . SVG Version: 6.00 Build 0)  -->
<svg version="1.0" xmlns="http://www.w3.org/2000/svg" xmlns:xlink="http://www.w3.org/1999/xlink" x="0px" y="0px"
	 viewBox="0 0 44.786 45" enable-background="new 0 0 44.786 45" xml:space="preserve">
<g id="Capa_1">
	<g id="Hv9NIr_00000109014224648844368940000018264340756034886575_">
		<g>
			<path fill="#838383" d="M44.893,22.33c-0.006,12.425-10.137,22.502-22.604,22.483C9.967,44.795-0.117,34.657-0.107,22.298
				C-0.097,9.865,10.04-0.22,22.495-0.187C34.828-0.154,44.899,9.97,44.893,22.33z M24.384,13.35c0,6.005,0,11.939,0,17.902
				c1.791,0,3.531,0,5.262,0c0-6.002,0-11.937,0-17.902C27.882,13.35,26.183,13.35,24.384,13.35z M15.137,13.355
				c0,6.021,0,11.95,0,17.914c1.774,0,3.489,0,5.232,0c0-6,0-11.95,0-17.914C18.599,13.355,16.904,13.355,15.137,13.355z"/>
			<path fill="#FFFFFF" d="M24.384,13.35c1.8,0,3.498,0,5.262,0c0,5.966,0,11.9,0,17.902c-1.73,0-3.471,0-5.262,0
				C24.384,25.289,24.384,19.355,24.384,13.35z"/>
			<path fill="#FFFFFF" d="M15.137,13.355c1.767,0,3.461,0,5.232,0c0,5.964,0,11.913,0,17.914c-1.743,0-3.458,0-5.232,0
				C15.137,25.305,15.137,19.376,15.137,13.355z"/>
		</g>
	</g>
</g>
<g id="Capa_2">
</g>
</svg>
