<?xml version="1.0" encoding="utf-8"?>
<!-- Generator: Adobe Illustrator 26.1.0, SVG Export Plug-In . SVG Version: 6.00 Build 0)  -->
<svg version="1.0" xmlns="http://www.w3.org/2000/svg" xmlns:xlink="http://www.w3.org/1999/xlink" x="0px" y="0px"
	 viewBox="0 0 44.786 45" enable-background="new 0 0 44.786 45" xml:space="preserve">
<g id="Capa_1">
	<path fill="#838383" d="M22.291,45C9.877,44.991-0.208,34.919-0.214,22.524C-0.221,10.117,9.868-0.002,22.243,0
		c12.507,0.002,22.57,10.094,22.542,22.607C44.758,34.947,34.65,45.009,22.291,45z M32.701,22.5
		c-5.494-3.505-10.845-6.919-16.268-10.38c0,6.986,0,13.802,0,20.762C21.874,29.41,27.21,26.005,32.701,22.5z"/>
	<path fill="#FFFFFF" d="M32.701,22.5c-5.491,3.504-10.827,6.909-16.268,10.382c0-6.959,0-13.776,0-20.762
		C21.856,15.581,27.207,18.995,32.701,22.5z"/>
</g>
<g id="Capa_2">
</g>
</svg>
