<?xml version="1.0" encoding="utf-8"?>
<!-- Generator: Adobe Illustrator 26.1.0, SVG Export Plug-In . SVG Version: 6.00 Build 0)  -->
<svg version="1.0" id="coin" xmlns="http://www.w3.org/2000/svg" xmlns:xlink="http://www.w3.org/1999/xlink" x="0px" y="0px"
	 viewBox="0 0 1.92 1.851" enable-background="new 0 0 1.92 1.851" xml:space="preserve">
<g id="_x33_J8h47.tif">
	<g>
		<path fill="#fabe00" d="M1.463,1.825c-0.011,0-0.021,0-0.032,0c-0.02-0.009-0.04-0.016-0.059-0.026C1.24,1.727,1.108,1.654,0.976,1.581
			c-0.011-0.006-0.019-0.007-0.03,0C0.87,1.623,0.794,1.665,0.718,1.706c-0.075,0.04-0.151,0.08-0.226,0.119
			c-0.013,0-0.026,0-0.039,0C0.452,1.824,0.451,1.823,0.449,1.822c-0.06-0.018-0.093-0.065-0.087-0.127
			c0.002-0.02,0.006-0.039,0.009-0.059c0.024-0.146,0.048-0.292,0.072-0.438c0.002-0.012-0.001-0.02-0.01-0.029
			C0.327,1.063,0.222,0.955,0.116,0.848C0.091,0.823,0.068,0.796,0.06,0.76c0-0.013,0-0.026,0-0.039
			c0.001-0.003,0.003-0.006,0.004-0.01c0.013-0.05,0.049-0.081,0.1-0.089C0.319,0.6,0.474,0.576,0.63,0.552
			C0.636,0.551,0.644,0.545,0.647,0.54c0.015-0.029,0.028-0.059,0.042-0.089c0.056-0.12,0.113-0.239,0.169-0.359
			c0.025-0.052,0.076-0.077,0.129-0.064c0.036,0.009,0.06,0.032,0.075,0.066c0.069,0.147,0.139,0.294,0.208,0.441
			C1.275,0.544,1.279,0.551,1.29,0.553C1.447,0.576,1.603,0.6,1.759,0.624c0.029,0.004,0.054,0.017,0.074,0.041
			c0.04,0.047,0.036,0.117-0.01,0.164C1.711,0.942,1.598,1.057,1.486,1.17C1.478,1.179,1.475,1.187,1.477,1.198
			c0.024,0.145,0.048,0.291,0.072,0.437c0.005,0.03,0.011,0.062,0.008,0.092C1.55,1.781,1.514,1.812,1.463,1.825z"/>
	</g>
</g>
</svg>
