<?xml version="1.0" encoding="utf-8"?>
<!-- Generator: Adobe Illustrator 26.1.0, SVG Export Plug-In . SVG Version: 6.00 Build 0)  -->
<svg version="1.0" id="coin" xmlns="http://www.w3.org/2000/svg" xmlns:xlink="http://www.w3.org/1999/xlink" x="0px" y="0px"
	 viewBox="0 0 2.71 1.851" enable-background="new 0 0 2.71 1.851" xml:space="preserve">
<g id="yZX2Uk.tif">
	<g>
		<path fill="#838383" d="M1.939,1.533c0.107-0.12,0.171-0.296,0.176-0.427c-0.02,0-0.04,0.001-0.06,0C2.013,1.104,1.988,1.078,1.991,1.038
			c0.002-0.032,0.024-0.055,0.056-0.057c0.011-0.001,0.022,0,0.033-0.001c0.011,0,0.022,0,0.033,0
			c0.014-0.095-0.082-0.327-0.177-0.423C1.925,0.571,1.913,0.585,1.901,0.598C1.875,0.625,1.839,0.626,1.815,0.603
			C1.789,0.579,1.787,0.538,1.812,0.512c0.012-0.013,0.026-0.026,0.039-0.038C1.782,0.391,1.551,0.296,1.425,0.297
			c0,0.016,0,0.032,0,0.049C1.424,0.384,1.399,0.408,1.362,0.408c-0.038,0-0.062-0.024-0.063-0.063c0-0.018,0-0.035,0-0.056
			c-0.16,0.013-0.298,0.074-0.422,0.176c0.014,0.014,0.028,0.026,0.041,0.04c0.029,0.029,0.03,0.064,0.004,0.091
			c-0.026,0.027-0.06,0.027-0.091-0.001C0.816,0.581,0.801,0.568,0.784,0.553c-0.101,0.123-0.16,0.262-0.176,0.421
			c0.022,0,0.042,0,0.062,0c0.039,0.001,0.063,0.025,0.063,0.062c0,0.038-0.024,0.062-0.063,0.063c-0.02,0-0.04,0-0.063,0
			c0.014,0.16,0.074,0.298,0.178,0.424C0.8,1.508,0.811,1.493,0.825,1.48C0.85,1.455,0.887,1.454,0.911,1.477
			c0.024,0.024,0.026,0.064,0.003,0.089c-0.028,0.03-0.058,0.059-0.088,0.087C0.799,1.679,0.765,1.677,0.737,1.649
			c-0.078-0.077-0.14-0.166-0.183-0.267C0.406,1.035,0.488,0.644,0.768,0.389c0.188-0.171,0.413-0.246,0.666-0.225
			c0.261,0.021,0.471,0.142,0.629,0.349c0.09,0.117,0.142,0.252,0.159,0.4c0.03,0.252-0.044,0.474-0.194,0.674
			C2.01,1.61,1.996,1.637,1.979,1.661C1.964,1.683,1.943,1.693,1.917,1.688C1.89,1.684,1.875,1.666,1.866,1.642
			C1.863,1.635,1.86,1.629,1.855,1.624C1.841,1.609,1.826,1.595,1.812,1.581C1.787,1.555,1.786,1.518,1.809,1.494
			C1.832,1.47,1.873,1.468,1.898,1.491C1.912,1.504,1.924,1.518,1.939,1.533z"/>
		<path fill="#838383" d="M1.354,1.225C1.283,1.222,1.222,1.189,1.19,1.114C1.158,1.04,1.168,0.968,1.223,0.908C1.278,0.849,1.348,0.835,1.425,0.86
			C1.44,0.865,1.449,0.863,1.46,0.852C1.516,0.794,1.573,0.737,1.63,0.681c0.027-0.027,0.062-0.028,0.088-0.004
			c0.028,0.025,0.029,0.063,0,0.092c-0.056,0.057-0.113,0.113-0.17,0.169C1.537,0.949,1.533,0.958,1.54,0.976
			C1.579,1.083,1.51,1.222,1.354,1.225z M1.362,1.099c0.037,0,0.063-0.025,0.063-0.063c0-0.037-0.025-0.063-0.063-0.063
			c-0.038,0-0.063,0.025-0.063,0.063C1.299,1.074,1.324,1.099,1.362,1.099z"/>
	</g>
</g>
</svg>
