<?xml version="1.0" encoding="utf-8"?>
<!-- Generator: Adobe Illustrator 26.1.0, SVG Export Plug-In . SVG Version: 6.00 Build 0)  -->
<svg version="1.0" id="coin" xmlns="http://www.w3.org/2000/svg" xmlns:xlink="http://www.w3.org/1999/xlink" x="0px" y="0px"
	 viewBox="0 0 1.92 1.851" enable-background="new 0 0 1.92 1.851" xml:space="preserve">
<g id="_x37_9A2hE_00000176758931054030916680000000485941569824471946_">
	<g>
		<path fill="#FFFFFF" d="M0.282,1.308C0.284,1.228,0.31,1.16,0.365,1.105c0.091-0.092,0.182-0.183,0.274-0.274
			c0.121-0.121,0.319-0.11,0.426,0.025c0.022,0.028,0.024,0.058,0.004,0.082C1.048,0.963,1.01,0.971,0.981,0.954
			C0.972,0.949,0.964,0.942,0.958,0.935c-0.06-0.068-0.16-0.073-0.224-0.01C0.642,1.016,0.551,1.107,0.46,1.199
			C0.418,1.242,0.405,1.294,0.423,1.352c0.018,0.057,0.059,0.092,0.118,0.103C0.593,1.465,0.639,1.45,0.676,1.413
			c0.068-0.067,0.135-0.134,0.202-0.202c0.007-0.007,0.014-0.009,0.024-0.006c0.042,0.013,0.085,0.016,0.129,0.013
			c0.005,0,0.012,0.002,0.013,0.005C1.046,1.226,1.044,1.234,1.04,1.237C0.949,1.329,0.859,1.423,0.765,1.512
			C0.683,1.589,0.585,1.61,0.479,1.576c-0.106-0.034-0.169-0.111-0.192-0.22C0.285,1.35,0.285,1.344,0.284,1.338
			C0.283,1.327,0.283,1.316,0.282,1.308z"/>
		<path fill="#FFFFFF" d="M1.559,0.595C1.558,0.679,1.531,0.746,1.477,0.801C1.385,0.893,1.293,0.985,1.201,1.077
			C1.08,1.197,0.882,1.185,0.776,1.051c-0.022-0.027-0.023-0.057-0.005-0.08c0.02-0.025,0.055-0.035,0.085-0.02
			c0.01,0.005,0.02,0.013,0.028,0.022c0.06,0.068,0.16,0.072,0.224,0.008C1.199,0.89,1.29,0.8,1.38,0.709
			c0.042-0.042,0.055-0.093,0.039-0.15C1.403,0.504,1.366,0.468,1.311,0.454C1.257,0.44,1.207,0.453,1.167,0.492
			C1.098,0.559,1.031,0.628,0.963,0.696C0.956,0.704,0.949,0.705,0.939,0.702C0.897,0.689,0.854,0.686,0.81,0.689
			c-0.005,0-0.012-0.002-0.013-0.006C0.795,0.68,0.798,0.673,0.801,0.67c0.091-0.092,0.181-0.185,0.275-0.274
			c0.082-0.078,0.181-0.099,0.288-0.064c0.106,0.034,0.168,0.111,0.191,0.22C1.558,0.567,1.558,0.584,1.559,0.595z"/>
	</g>
</g>
</svg>
